# xmcd
#
# Track frame offsets:
#	150
#	21728
#	42345
#	60331
#	79804
#	102579
#	119375
#	141270
#	163479
#	184789
#	212929
#	229116
#	253725
#	278018
#
# Disc length: 3863 seconds
#
# Revision: 0
# Processed by: cddbd v1.5.2PL0 Copyright (c) Steve Scherf et al.
# Submitted via: EasyCDDAExtractor 2010.6.0.0
#
DISCID=d50f150e
DTITLE=Raimundo Amador - Medio Hombre Medio Guitarra
DYEAR=1900
DGENRE=
TTITLE0=Medio Hombre Medio Guitarra
TTITLE1=Casitas Blancas
TTITLE2=Coca-Cola (Sin Cola) 
TTITLE3=Plantitas
TTITLE4=Mis Zapatos No Quieren Bailar
TTITLE5=Me Vi Caer
TTITLE6=Elegia a Don Luis Amador (juagonz)
TTITLE7=Killa
TTITLE8=Sal de Najas
TTITLE9=Yo Huto
TTITLE10=Olor del Arte
TTITLE11=Zambra Blues
TTITLE12=Max Roach
TTITLE13=El Mecanico
EXTD=
EXTT0=
EXTT1=
EXTT2=
EXTT3=
EXTT4=
EXTT5=
EXTT6=
EXTT7=
EXTT8=
EXTT9=
EXTT10=
EXTT11=
EXTT12=
EXTT13=
PLAYORDER=
